<svg xmlns="http://www.w3.org/2000/svg" width="113.697" height="42" viewBox="0 0 113.697 42">
  <path id="dsn-logo" d="M58.361,1.356c3.051,0,5.375.6,6.924,2.082a7.01,7.01,0,0,1,2.107,5.155,7.771,7.771,0,0,1-3.026,6.489,11.773,11.773,0,0,1-7.286,2.009H51.029v-.775c1.984-.145,2.2-.314,2.2-2.372V4.5c0-2.058-.218-2.2-1.987-2.372V1.356Zm-2.3,12.418c0,1.768.533,2.325,2.227,2.325,3.728,0,5.906-2.9,5.906-7.069a6.618,6.618,0,0,0-2.2-5.422A5.811,5.811,0,0,0,58,2.276a3.162,3.162,0,0,0-1.671.314c-.192.218-.266.556-.266,1.356v9.828Zm20.09,3.607a1.968,1.968,0,0,1-1.959-1.453,8.251,8.251,0,0,1-2.664,1.453,3.088,3.088,0,0,1-3.146-3.051c0-1.233.606-1.862,1.888-2.348A19.41,19.41,0,0,0,74.1,10.408V9.779c0-1.6-.653-2.493-1.67-2.493a1.125,1.125,0,0,0-.92.435,5.072,5.072,0,0,0-.7,1.646.834.834,0,0,1-.9.727c-.557,0-1.331-.533-1.331-1.137,0-.412.29-.7.8-1.09a11.962,11.962,0,0,1,3.873-1.719,3.407,3.407,0,0,1,2.227.7,3.458,3.458,0,0,1,1.211,3.1v4.164c0,1.113.389,1.427.8,1.427a2,2,0,0,0,.849-.217l.243.725ZM74.1,11.3c-.459.243-1.137.582-1.646.847a1.764,1.764,0,0,0-1.259,1.694,1.672,1.672,0,0,0,1.549,1.841,2.218,2.218,0,0,0,1.356-.557Zm12.03,5.785v-.727c1.162-.145,1.305-.266,1.305-1.96V10.312c0-1.719-.725-2.445-1.864-2.445a3.49,3.49,0,0,0-2.105.92v5.785c0,1.549.145,1.646,1.282,1.791v.727H79.131v-.727c1.548-.194,1.67-.241,1.67-1.864V9.487c0-1.476-.122-1.572-1.356-1.815V7.043A24.674,24.674,0,0,0,83.464,6.1V7.939c.484-.339.992-.727,1.549-1.09a3.339,3.339,0,0,1,1.936-.7c1.939,0,3.148,1.4,3.148,3.8v4.624c0,1.549.145,1.621,1.452,1.791v.727ZM99.246,9.464c-.582-1.476-1.38-2.445-2.542-2.445a1.365,1.365,0,0,0-1.356,1.453c0,.847.7,1.4,1.888,1.913,1.913.823,3.2,1.694,3.2,3.485,0,2.348-2.2,3.511-4.212,3.511a5.525,5.525,0,0,1-2.955-.824,12.853,12.853,0,0,1-.386-3.122l.676-.073c.508,1.549,1.623,3.123,3.077,3.123a1.432,1.432,0,0,0,1.475-1.453c0-.823-.458-1.4-1.864-2.081-1.235-.582-3.074-1.478-3.074-3.486,0-1.815,1.5-3.317,3.946-3.317a5.469,5.469,0,0,1,2.249.437,13.369,13.369,0,0,1,.582,2.662l-.7.218Zm10.579,7.674c-.847-1.017-2.275-3.1-3.438-4.793-.241-.314-.411-.437-.582-.46a1.153,1.153,0,0,0-.29,0v2.639c0,1.572.2,1.669,1.647,1.839v.725h-5.956v-.725c1.525-.171,1.671-.267,1.671-1.839V3.219c0-1.429-.146-1.574-1.5-1.719V.847A25.912,25.912,0,0,0,105.515,0V11.208a2.549,2.549,0,0,0,1.429-.9A13.18,13.18,0,0,0,108.469,8.2c.363-.6.266-.847-.727-.992v-.7l5.108-.217v.7A4.908,4.908,0,0,0,109.8,8.3a26.71,26.71,0,0,0-1.839,2.082c.629.992,2.856,3.824,3.632,4.72a3.008,3.008,0,0,0,2.105,1.259v.725l-3.873.049ZM9.948,24.062c-.526-1.525-1.468-3.268-3.768-3.268a2.574,2.574,0,0,0-2.855,2.491c0,1.5,1.137,2.277,3.492,3.318,2.632,1.139,4.849,2.421,4.849,4.938,0,2.687-2.6,4.793-6.539,4.793a9.954,9.954,0,0,1-2.744-.365A10.824,10.824,0,0,1,.8,35.462,26.526,26.526,0,0,1,0,31.469l.942-.218c.5,1.5,2,4.14,4.71,4.14,1.857,0,2.993-1.064,2.993-2.687,0-1.549-1.33-2.444-3.408-3.413C2.771,28.2.5,26.918.5,24.45c0-2.542,2.3-4.575,6.124-4.575a13.772,13.772,0,0,1,3.712.6c.112.872.277,1.913.527,3.412l-.913.171Zm8.377,1.4a2.452,2.452,0,0,1,1.282-.437,4.383,4.383,0,0,1,4.335,4.647c0,3.583-2.807,5.907-5.93,6.585a4.839,4.839,0,0,1-1.575-.339v3.123c0,1.549.146,1.694,2.009,1.864v.727H12.079v-.727c1.549-.146,1.7-.314,1.7-1.766V28.249c0-1.427-.169-1.525-1.476-1.7v-.678a30.327,30.327,0,0,0,4.138-1.088V26.6Zm-1.89,8.643a3.454,3.454,0,0,0,2.082.943c1.574,0,2.662-1.671,2.662-4.262,0-2.856-1.5-4.067-2.9-4.067a3.228,3.228,0,0,0-1.839.727ZM29.484,27.6c.823-1.406,1.815-2.566,2.809-2.566a1.474,1.474,0,0,1,1.549,1.406A1.717,1.717,0,0,1,32.8,28.007a.621.621,0,0,1-.7-.095,1.746,1.746,0,0,0-1.091-.484c-.533,0-1.111.458-1.574,1.549v4.476c0,1.526.122,1.647,1.986,1.792v.728H25.174v-.728c1.38-.145,1.6-.266,1.6-1.792V28.275c0-1.38-.146-1.476-1.38-1.717v-.629a20.587,20.587,0,0,0,4.041-.922V27.6h.052ZM40.112,25.03a5.316,5.316,0,0,1,5.4,5.421,5.444,5.444,0,0,1-5.492,5.811,5.293,5.293,0,0,1-5.544-5.373,5.647,5.647,0,0,1,5.616-5.859Zm-.363.895c-1.162,0-2.25,1.381-2.25,4.117,0,3,1.09,5.323,2.783,5.323,1.137,0,2.2-.774,2.2-4.259,0-3.148-.968-5.181-2.711-5.181h-.024Zm9.828,10.385a3.582,3.582,0,0,1-1.792-1.331,2.156,2.156,0,0,1-.337-1.185,6.043,6.043,0,0,0,2.348-1.551,3.337,3.337,0,0,1-2.275-3.219c0-2.734,2.491-3.993,4.551-3.993h.023a5.374,5.374,0,0,1,2.494.629c1.211-.047,2.468-.194,3.413-.314l.121.169a3.662,3.662,0,0,1-1.041,1.4l-1.4-.095a2.955,2.955,0,0,1,.678,1.96c0,2.566-2.227,3.822-4.477,3.822a9.464,9.464,0,0,1-1.212-.121,1.184,1.184,0,0,0-.484.8c0,.411.411.895,1.549.895.823,0,1.572-.024,2.348-.024,1.5,0,3.632.435,3.632,2.9,0,2.662-3.074,4.94-6.294,4.94-2.954,0-4.383-1.6-4.407-2.955a1.807,1.807,0,0,1,.7-1.356c.131-.123.6-.455.661-.494a6.122,6.122,0,0,0,1.2.432,1.229,1.229,0,0,0-.194.741c0,1.21,1.259,2.322,3.148,2.322,1.984,0,3.1-1.064,3.1-2.443a1.647,1.647,0,0,0-1.259-1.624,6.852,6.852,0,0,0-2.154-.241h-.024a10.73,10.73,0,0,1-2.612-.073m2.3-10.432c-.823,0-1.623.945-1.623,2.76,0,1.766.679,3.122,1.887,3.122.969,0,1.647-.968,1.647-2.807,0-1.669-.653-3.074-1.888-3.074ZM65.818,35.97v-.727c1.163-.145,1.308-.266,1.308-1.96V29.193c0-1.717-.727-2.444-1.865-2.444a3.494,3.494,0,0,0-2.105.92v5.785c0,1.548.145,1.646,1.282,1.789v.727H58.822v-.727c1.549-.192,1.67-.241,1.67-1.864V28.37c0-1.476-.121-1.574-1.356-1.816v-.629a24.8,24.8,0,0,0,4.021-.943v1.841c.484-.339.991-.727,1.549-1.091a3.334,3.334,0,0,1,1.936-.7c1.937,0,3.146,1.4,3.146,3.8v4.625c0,1.548.146,1.621,1.453,1.789v.727H65.818Zm12.563-7.335c0-1.5-.872-2.445-1.765-2.445a1.12,1.12,0,0,0-.971.459,4.089,4.089,0,0,0-.629,1.574.892.892,0,0,1-.919.728c-.51,0-1.357-.533-1.357-1.09,0-.389.267-.75.847-1.139a12.546,12.546,0,0,1,3.85-1.694,3.174,3.174,0,0,1,1.887.58,2.673,2.673,0,0,1,.92,1.041,4.881,4.881,0,0,1,3.341-1.621,3.944,3.944,0,0,1,3.9,3.824c0,.557-.122.775-.629.87-.363.075-3.462.291-6.1.389-.026,2.882,1.623,4.187,3.486,4.187a4.253,4.253,0,0,0,2.638-1.09l.461.559a5.5,5.5,0,0,1-4.164,2.493,4.38,4.38,0,0,1-3.9-2.082l-.774.629a6.029,6.029,0,0,1-2.858,1.453,3.072,3.072,0,0,1-3.122-3,2.381,2.381,0,0,1,1.864-2.42,25.8,25.8,0,0,0,3.993-1.6v-.6Zm-1.452,5.859a2.535,2.535,0,0,0,1.96-1.042,8.552,8.552,0,0,1-.533-3.34c-.46.241-1.185.582-1.816.872-.821.435-1.233.87-1.233,1.694a1.669,1.669,0,0,0,1.6,1.816ZM83,26c-.968,0-1.937,1.091-2.128,3.076,1.162-.024,2.275-.024,3.412-.072.363,0,.533-.123.533-.582,0-1.211-.653-2.422-1.791-2.422H83Zm16.9.05c-1.233.217-1.5.458-2.058,1.719C97,29.654,95.76,32.6,94.332,36.236h-.823c-1.162-2.975-2.275-5.735-3.436-8.545-.485-1.186-.751-1.427-1.962-1.646v-.727H93.7v.727c-1.163.217-1.258.389-.92,1.307.6,1.694,1.525,4.115,2.009,5.372.6-1.426,1.38-3.6,1.913-5.25.314-.92.192-1.235-1.139-1.429v-.727H99.9v.728Zm7.457,9.924v-.727c1.162-.145,1.305-.266,1.305-1.96V29.193c0-1.717-.727-2.444-1.864-2.444a3.494,3.494,0,0,0-2.105.92v5.785c0,1.548.146,1.646,1.282,1.789v.727h-5.615v-.727c1.548-.192,1.67-.241,1.67-1.864V28.37c0-1.476-.122-1.574-1.356-1.816v-.629a24.818,24.818,0,0,0,4.019-.943v1.841c.484-.339.992-.727,1.548-1.091a3.348,3.348,0,0,1,1.937-.7c1.939,0,3.146,1.4,3.146,3.8v4.625c0,1.548.146,1.621,1.453,1.789v.727h-5.422Z" transform="translate(0)" fill="#fff"/>
</svg>